<?xml version="1.0" encoding="UTF-8" standalone="no"?><!-- Generator: Gravit.io --><svg xmlns="http://www.w3.org/2000/svg" xmlns:xlink="http://www.w3.org/1999/xlink" style="isolation:isolate" viewBox="0 0 695 386" width="695pt" height="386pt"><defs><clipPath id="_clipPath_WQDvWMbDcrZEJ9rP5szhUd7XlxnUINbq"><rect width="695" height="386"/></clipPath></defs><g clip-path="url(#_clipPath_WQDvWMbDcrZEJ9rP5szhUd7XlxnUINbq)"><g><g filter="url(#SsCWIxIjGPqw9UPHN3vbBkI26CiA2VIu)"><path d=" M 349.175 72.891 C 358.119 61.367 385.01 65.072 409.188 81.158 C 433.366 97.245 445.733 119.661 436.789 131.185 C 427.844 142.709 400.953 139.005 376.776 122.918 C 352.598 106.831 340.23 84.415 349.175 72.891 Z " fill="rgb(72,77,123)"/><path d=" M 419.546 67.159 Q 547.567 192.102 440.274 160.463 C 592.088 251.943 677.542 228.577 692.363 89.231 C 658.66 133.305 630.4 149.533 608.975 138.244 C 655.639 111.391 671.673 72.38 659.561 23.16 C 606.297 142.952 506.454 131.227 419.546 67.159 Z " fill="rgb(174,210,133)"/><path d=" M 346.972 46.252 C 279.249 25.508 290.873 60.713 381.827 151.846 C 255.251 63.019 132.271 85.96 12.869 220.645 C 27.573 150.636 79.243 95.928 165.009 55.727 C 110.303 59.024 55.403 82.016 3.425 124.12 C 78.07 1.624 203.505 -35.042 346.972 46.252 Z " fill="rgb(72,77,123)"/></g><defs><filter id="SsCWIxIjGPqw9UPHN3vbBkI26CiA2VIu" x="-200%" y="-200%" width="400%" height="400%" filterUnits="objectBoundingBox" color-interpolation-filters="sRGB"><feGaussianBlur xmlns="http://www.w3.org/2000/svg" in="SourceGraphic" stdDeviation="0"/><feOffset xmlns="http://www.w3.org/2000/svg" dx="-1" dy="24" result="pf_100_offsetBlur"/><feFlood xmlns="http://www.w3.org/2000/svg" flood-color="#000000" flood-opacity="0.09"/><feComposite xmlns="http://www.w3.org/2000/svg" in2="pf_100_offsetBlur" operator="in" result="pf_100_dropShadow"/><feBlend xmlns="http://www.w3.org/2000/svg" in="SourceGraphic" in2="pf_100_dropShadow" mode="normal"/></filter></defs><path d=" M 381.864 276.99 L 394.228 276.99 L 394.228 281.209 L 376.639 281.209 L 376.639 258.493 L 393.806 258.493 L 393.806 262.711 L 381.864 262.711 L 381.864 267.644 L 392.411 267.644 L 392.411 271.733 L 381.864 271.733 L 381.864 276.99 Z  M 425.523 258.493 L 430.747 258.493 L 420.914 281.209 L 415.722 281.209 L 405.922 258.493 L 411.601 258.493 L 418.513 274.718 L 425.523 258.493 Z  M 459.673 281.209 L 457.661 276.341 L 447.114 276.341 L 445.102 281.209 L 439.715 281.209 L 449.84 258.493 L 455.032 258.493 L 465.19 281.209 L 459.673 281.209 Z  M 448.801 272.35 L 456.006 272.35 L 452.404 263.652 L 448.801 272.35 Z  M 494.018 258.493 L 499.21 258.493 L 499.21 281.209 L 494.894 281.209 L 483.568 267.417 L 483.568 281.209 L 478.376 281.209 L 478.376 258.493 L 482.724 258.493 L 494.018 272.285 L 494.018 258.493 Z  M 530.764 276.146 L 530.764 269.494 L 535.567 269.494 L 535.567 278.71 L 535.567 278.71 Q 533.717 280.105 531.283 280.852 L 531.283 280.852 L 531.283 280.852 Q 528.849 281.598 526.383 281.598 L 526.383 281.598 L 526.383 281.598 Q 522.846 281.598 520.022 280.089 L 520.022 280.089 L 520.022 280.089 Q 517.199 278.58 515.593 275.903 L 515.593 275.903 L 515.593 275.903 Q 513.986 273.226 513.986 269.851 L 513.986 269.851 L 513.986 269.851 Q 513.986 266.476 515.593 263.798 L 515.593 263.798 L 515.593 263.798 Q 517.199 261.121 520.055 259.612 L 520.055 259.612 L 520.055 259.612 Q 522.91 258.103 526.48 258.103 L 526.48 258.103 L 526.48 258.103 Q 529.466 258.103 531.9 259.109 L 531.9 259.109 L 531.9 259.109 Q 534.334 260.115 535.989 262.03 L 535.989 262.03 L 532.614 265.145 L 532.614 265.145 Q 530.18 262.582 526.74 262.582 L 526.74 262.582 L 526.74 262.582 Q 524.566 262.582 522.878 263.49 L 522.878 263.49 L 522.878 263.49 Q 521.191 264.399 520.25 266.054 L 520.25 266.054 L 520.25 266.054 Q 519.308 267.709 519.308 269.851 L 519.308 269.851 L 519.308 269.851 Q 519.308 271.96 520.25 273.615 L 520.25 273.615 L 520.25 273.615 Q 521.191 275.27 522.862 276.195 L 522.862 276.195 L 522.862 276.195 Q 524.533 277.12 526.675 277.12 L 526.675 277.12 L 526.675 277.12 Q 528.947 277.12 530.764 276.146 L 530.764 276.146 Z  M 556.477 276.99 L 568.841 276.99 L 568.841 281.209 L 551.252 281.209 L 551.252 258.493 L 568.419 258.493 L 568.419 262.711 L 556.477 262.711 L 556.477 267.644 L 567.023 267.644 L 567.023 271.733 L 556.477 271.733 L 556.477 276.99 Z  M 556.899 256.643 L 561.279 251.97 L 566.731 251.97 L 560.858 256.643 L 556.899 256.643 Z  M 583.844 281.209 L 583.844 258.493 L 589.101 258.493 L 589.101 276.925 L 600.492 276.925 L 600.492 281.209 L 583.844 281.209 Z  M 614.262 281.209 L 614.262 258.493 L 619.52 258.493 L 619.52 281.209 L 614.262 281.209 Z  M 646.595 281.598 L 646.595 281.598 Q 643.123 281.598 640.316 280.089 L 640.316 280.089 L 640.316 280.089 Q 637.509 278.58 635.902 275.903 L 635.902 275.903 L 635.902 275.903 Q 634.296 273.226 634.296 269.851 L 634.296 269.851 L 634.296 269.851 Q 634.296 266.476 635.902 263.798 L 635.902 263.798 L 635.902 263.798 Q 637.509 261.121 640.316 259.612 L 640.316 259.612 L 640.316 259.612 Q 643.123 258.103 646.628 258.103 L 646.628 258.103 L 646.628 258.103 Q 649.581 258.103 651.966 259.142 L 651.966 259.142 L 651.966 259.142 Q 654.351 260.18 655.974 262.127 L 655.974 262.127 L 652.599 265.243 L 652.599 265.243 Q 650.295 262.582 646.887 262.582 L 646.887 262.582 L 646.887 262.582 Q 644.778 262.582 643.123 263.506 L 643.123 263.506 L 643.123 263.506 Q 641.468 264.431 640.543 266.086 L 640.543 266.086 L 640.543 266.086 Q 639.618 267.741 639.618 269.851 L 639.618 269.851 L 639.618 269.851 Q 639.618 271.96 640.543 273.615 L 640.543 273.615 L 640.543 273.615 Q 641.468 275.27 643.123 276.195 L 643.123 276.195 L 643.123 276.195 Q 644.778 277.12 646.887 277.12 L 646.887 277.12 L 646.887 277.12 Q 650.295 277.12 652.599 274.426 L 652.599 274.426 L 655.974 277.542 L 655.974 277.542 Q 654.351 279.521 651.95 280.56 L 651.95 280.56 L 651.95 280.56 Q 649.548 281.598 646.595 281.598 L 646.595 281.598 Z  M 686.846 281.209 L 684.834 276.341 L 674.287 276.341 L 672.276 281.209 L 666.889 281.209 L 677.013 258.493 L 682.206 258.493 L 692.363 281.209 L 686.846 281.209 Z  M 675.975 272.35 L 683.179 272.35 L 679.577 263.652 L 675.975 272.35 Z  M 15.299 281.598 L 15.299 281.598 Q 11.827 281.598 9.02 280.089 L 9.02 280.089 L 9.02 280.089 Q 6.213 278.58 4.606 275.903 L 4.606 275.903 L 4.606 275.903 Q 3 273.226 3 269.851 L 3 269.851 L 3 269.851 Q 3 266.476 4.606 263.798 L 4.606 263.798 L 4.606 263.798 Q 6.213 261.121 9.02 259.612 L 9.02 259.612 L 9.02 259.612 Q 11.827 258.103 15.332 258.103 L 15.332 258.103 L 15.332 258.103 Q 18.285 258.103 20.67 259.142 L 20.67 259.142 L 20.67 259.142 Q 23.055 260.18 24.678 262.127 L 24.678 262.127 L 21.303 265.243 L 21.303 265.243 Q 18.999 262.582 15.591 262.582 L 15.591 262.582 L 15.591 262.582 Q 13.482 262.582 11.827 263.506 L 11.827 263.506 L 11.827 263.506 Q 10.172 264.431 9.247 266.086 L 9.247 266.086 L 9.247 266.086 Q 8.322 267.741 8.322 269.851 L 8.322 269.851 L 8.322 269.851 Q 8.322 271.96 9.247 273.615 L 9.247 273.615 L 9.247 273.615 Q 10.172 275.27 11.827 276.195 L 11.827 276.195 L 11.827 276.195 Q 13.482 277.12 15.591 277.12 L 15.591 277.12 L 15.591 277.12 Q 18.999 277.12 21.303 274.426 L 21.303 274.426 L 24.678 277.542 L 24.678 277.542 Q 23.055 279.521 20.654 280.56 L 20.654 280.56 L 20.654 280.56 Q 18.252 281.598 15.299 281.598 L 15.299 281.598 Z  M 49.547 281.598 L 49.547 281.598 Q 46.01 281.598 43.17 280.073 L 43.17 280.073 L 43.17 280.073 Q 40.33 278.548 38.724 275.871 L 38.724 275.871 L 38.724 275.871 Q 37.118 273.193 37.118 269.851 L 37.118 269.851 L 37.118 269.851 Q 37.118 266.508 38.724 263.831 L 38.724 263.831 L 38.724 263.831 Q 40.33 261.154 43.17 259.628 L 43.17 259.628 L 43.17 259.628 Q 46.01 258.103 49.547 258.103 L 49.547 258.103 L 49.547 258.103 Q 53.084 258.103 55.907 259.628 L 55.907 259.628 L 55.907 259.628 Q 58.731 261.154 60.353 263.831 L 60.353 263.831 L 60.353 263.831 Q 61.976 266.508 61.976 269.851 L 61.976 269.851 L 61.976 269.851 Q 61.976 273.193 60.353 275.871 L 60.353 275.871 L 60.353 275.871 Q 58.731 278.548 55.907 280.073 L 55.907 280.073 L 55.907 280.073 Q 53.084 281.598 49.547 281.598 L 49.547 281.598 Z  M 49.547 277.12 L 49.547 277.12 Q 51.559 277.12 53.181 276.195 L 53.181 276.195 L 53.181 276.195 Q 54.804 275.27 55.729 273.615 L 55.729 273.615 L 55.729 273.615 Q 56.654 271.96 56.654 269.851 L 56.654 269.851 L 56.654 269.851 Q 56.654 267.741 55.729 266.086 L 55.729 266.086 L 55.729 266.086 Q 54.804 264.431 53.181 263.506 L 53.181 263.506 L 53.181 263.506 Q 51.559 262.582 49.547 262.582 L 49.547 262.582 L 49.547 262.582 Q 47.535 262.582 45.912 263.506 L 45.912 263.506 L 45.912 263.506 Q 44.29 264.431 43.365 266.086 L 43.365 266.086 L 43.365 266.086 Q 42.44 267.741 42.44 269.851 L 42.44 269.851 L 42.44 269.851 Q 42.44 271.96 43.365 273.615 L 43.365 273.615 L 43.365 273.615 Q 44.29 275.27 45.912 276.195 L 45.912 276.195 L 45.912 276.195 Q 47.535 277.12 49.547 277.12 L 49.547 277.12 Z  M 102.357 281.209 L 97.424 281.209 L 97.392 267.579 L 90.706 278.807 L 88.337 278.807 L 81.685 267.871 L 81.685 281.209 L 76.752 281.209 L 76.752 258.493 L 81.101 258.493 L 89.603 272.609 L 97.976 258.493 L 102.292 258.493 L 102.357 281.209 Z  M 128.653 281.598 L 128.653 281.598 Q 123.786 281.598 121.076 278.905 L 121.076 278.905 L 121.076 278.905 Q 118.366 276.211 118.366 271.214 L 118.366 271.214 L 118.366 258.493 L 123.623 258.493 L 123.623 271.019 L 123.623 271.019 Q 123.623 277.12 128.686 277.12 L 128.686 277.12 L 128.686 277.12 Q 131.152 277.12 132.45 275.643 L 132.45 275.643 L 132.45 275.643 Q 133.748 274.167 133.748 271.019 L 133.748 271.019 L 133.748 258.493 L 138.941 258.493 L 138.941 271.214 L 138.941 271.214 Q 138.941 276.211 136.231 278.905 L 136.231 278.905 L 136.231 278.905 Q 133.521 281.598 128.653 281.598 L 128.653 281.598 Z  M 170.592 258.493 L 175.784 258.493 L 175.784 281.209 L 171.468 281.209 L 160.143 267.417 L 160.143 281.209 L 154.95 281.209 L 154.95 258.493 L 159.299 258.493 L 170.592 272.285 L 170.592 258.493 Z  M 191.989 281.209 L 191.989 258.493 L 197.246 258.493 L 197.246 281.209 L 191.989 281.209 Z  M 213.45 281.209 L 213.45 258.493 L 223.77 258.493 L 223.77 258.493 Q 227.469 258.493 230.309 259.904 L 230.309 259.904 L 230.309 259.904 Q 233.148 261.316 234.722 263.88 L 234.722 263.88 L 234.722 263.88 Q 236.296 266.443 236.296 269.851 L 236.296 269.851 L 236.296 269.851 Q 236.296 273.258 234.722 275.822 L 234.722 275.822 L 234.722 275.822 Q 233.148 278.386 230.309 279.797 L 230.309 279.797 L 230.309 279.797 Q 227.469 281.209 223.77 281.209 L 223.77 281.209 L 213.45 281.209 Z  M 218.707 276.893 L 223.51 276.893 L 223.51 276.893 Q 226.918 276.893 228.946 274.994 L 228.946 274.994 L 228.946 274.994 Q 230.974 273.096 230.974 269.851 L 230.974 269.851 L 230.974 269.851 Q 230.974 266.605 228.946 264.707 L 228.946 264.707 L 228.946 264.707 Q 226.918 262.809 223.51 262.809 L 223.51 262.809 L 218.707 262.809 L 218.707 276.893 Z  M 267.72 281.209 L 265.708 276.341 L 255.161 276.341 L 253.149 281.209 L 247.762 281.209 L 257.887 258.493 L 263.08 258.493 L 273.237 281.209 L 267.72 281.209 Z  M 256.849 272.35 L 264.053 272.35 L 260.451 263.652 L 256.849 272.35 Z  M 286.423 281.209 L 286.423 258.493 L 296.743 258.493 L 296.743 258.493 Q 300.443 258.493 303.282 259.904 L 303.282 259.904 L 303.282 259.904 Q 306.122 261.316 307.696 263.88 L 307.696 263.88 L 307.696 263.88 Q 309.269 266.443 309.269 269.851 L 309.269 269.851 L 309.269 269.851 Q 309.269 273.258 307.696 275.822 L 307.696 275.822 L 307.696 275.822 Q 306.122 278.386 303.282 279.797 L 303.282 279.797 L 303.282 279.797 Q 300.443 281.209 296.743 281.209 L 296.743 281.209 L 286.423 281.209 Z  M 291.681 276.893 L 296.483 276.893 L 296.483 276.893 Q 299.891 276.893 301.919 274.994 L 301.919 274.994 L 301.919 274.994 Q 303.947 273.096 303.947 269.851 L 303.947 269.851 L 303.947 269.851 Q 303.947 266.605 301.919 264.707 L 301.919 264.707 L 301.919 264.707 Q 299.891 262.809 296.483 262.809 L 296.483 262.809 L 291.681 262.809 L 291.681 276.893 Z  M 329.27 276.99 L 341.635 276.99 L 341.635 281.209 L 324.046 281.209 L 324.046 258.493 L 341.213 258.493 L 341.213 262.711 L 329.27 262.711 L 329.27 267.644 L 339.817 267.644 L 339.817 271.733 L 329.27 271.733 L 329.27 276.99 Z " fill="rgb(72,77,123)"/><path d=" M 358.065 307.083 L 358.065 307.083 Q 368.031 307.083 375.428 310.371 L 375.428 310.371 L 375.428 310.371 Q 382.825 313.658 386.832 319.822 L 386.832 319.822 L 386.832 319.822 Q 390.839 325.987 390.839 334.206 L 390.839 334.206 L 390.839 334.206 Q 390.839 342.425 386.832 348.589 L 386.832 348.589 L 386.832 348.589 Q 382.825 354.754 375.428 358.041 L 375.428 358.041 L 375.428 358.041 Q 368.031 361.329 358.065 361.329 L 358.065 361.329 L 347.689 361.329 L 347.689 379 L 323.442 379 L 323.442 307.083 L 358.065 307.083 Z  M 356.524 342.63 L 356.524 342.63 Q 361.456 342.63 363.921 340.422 L 363.921 340.422 L 363.921 340.422 Q 366.387 338.213 366.387 334.206 L 366.387 334.206 L 366.387 334.206 Q 366.387 330.199 363.921 327.99 L 363.921 327.99 L 363.921 327.99 Q 361.456 325.781 356.524 325.781 L 356.524 325.781 L 347.689 325.781 L 347.689 342.63 L 356.524 342.63 Z  M 398.75 379 L 398.75 307.083 L 422.996 307.083 L 422.996 360.199 L 455.462 360.199 L 455.462 379 L 398.75 379 Z  M 485.975 360.713 L 521.934 360.713 L 521.934 379 L 462.14 379 L 462.14 307.083 L 520.598 307.083 L 520.598 325.37 L 485.975 325.37 L 485.975 333.795 L 516.386 333.795 L 516.386 351.261 L 485.975 351.261 L 485.975 360.713 Z  M 578.543 307.083 L 602.173 307.083 L 602.173 379 L 582.241 379 L 554.913 346.329 L 554.913 379 L 531.283 379 L 531.283 307.083 L 551.214 307.083 L 578.543 339.754 L 578.543 307.083 Z  M 667.72 379 L 662.891 366.466 L 635.563 366.466 L 630.734 379 L 606.077 379 L 637.515 307.083 L 661.35 307.083 L 692.788 379 L 667.72 379 Z  M 642.241 349 L 656.213 349 L 649.227 330.918 L 642.241 349 Z  M 63.821 307.083 L 87.657 307.083 L 57.246 379 L 33.411 379 L 3 307.083 L 29.096 307.083 L 46.253 349.103 L 63.821 307.083 Z  M 90.02 379 L 90.02 307.083 L 114.266 307.083 L 114.266 379 L 90.02 379 Z  M 125.978 379 L 125.978 307.083 L 161.423 307.083 L 161.423 307.083 Q 173.444 307.083 182.639 311.449 L 182.639 311.449 L 182.639 311.449 Q 191.834 315.816 196.919 323.932 L 196.919 323.932 L 196.919 323.932 Q 202.005 332.048 202.005 343.041 L 202.005 343.041 L 202.005 343.041 Q 202.005 354.034 196.919 362.151 L 196.919 362.151 L 196.919 362.151 Q 191.834 370.267 182.639 374.634 L 182.639 374.634 L 182.639 374.634 Q 173.444 379 161.423 379 L 161.423 379 L 125.978 379 Z  M 150.225 360.096 L 160.396 360.096 L 160.396 360.096 Q 168.204 360.096 172.879 355.627 L 172.879 355.627 L 172.879 355.627 Q 177.553 351.158 177.553 343.041 L 177.553 343.041 L 177.553 343.041 Q 177.553 334.925 172.879 330.456 L 172.879 330.456 L 172.879 330.456 Q 168.204 325.987 160.396 325.987 L 160.396 325.987 L 150.225 325.987 L 150.225 360.096 Z  M 263.648 379 L 258.82 366.466 L 231.491 366.466 L 226.662 379 L 202.005 379 L 233.443 307.083 L 257.278 307.083 L 288.717 379 L 263.648 379 Z  M 238.169 349 L 252.142 349 L 245.155 330.918 L 238.169 349 Z " fill="rgb(72,77,123)"/></g></g></svg>